<?xml version="1.0" encoding="utf-8"?>
<!-- Generator: Adobe Illustrator 19.1.0, SVG Export Plug-In . SVG Version: 6.00 Build 0)  -->
<svg version="1.1" id="Layer_1" xmlns="http://www.w3.org/2000/svg" xmlns:xlink="http://www.w3.org/1999/xlink" x="0px" y="0px"
	 viewBox="0 0 256 256" style="enable-background:new 0 0 256 256;" xml:space="preserve">
<style type="text/css">
	.st0{fill:#F2989E;}
	.st1{fill:#2C1E1E;}
	.st2{fill:#F1EEED;}
	.st3{fill:#F0E9E9;}
	.st4{fill:#493737;}
	.st5{fill:#4C4140;}
	.st6{fill:#5B4947;}
	.st7{fill:#E4989D;}
	.st8{fill:#6B4D4B;}
	.st9{fill:#E9E6E5;}
	.st10{fill:#6B5655;}
	.st11{fill:#523E3E;}
	.st12{fill:#5C524F;}
	.st13{fill:#FDFDFD;}
	.st14{fill:#F5F4F3;}
	.st15{fill:#D2D2D4;}
	.st16{fill:#D3D2D3;}
	.st17{fill:#897A77;}
	.st18{fill:#D2D3D5;}
	.st19{fill:#E7959A;}
	.st20{fill:#EF979D;}
	.st21{fill:#E4D7D4;}
	.st22{fill:#7C5352;}
	.st23{fill:#FEFEFE;}
	.st24{fill:#A0928A;}
	.st25{fill:#EDE2E0;}
</style>
<path class="st0" d="M84.7,51.7c0-0.2-0.1-0.4-0.1-0.6c0-1.3,0-2.7,0-4c0.3-0.2,0.8-0.4,1-0.7c0.4-0.6,0.7-1.3,1-1.9
	c1.7-3.2,3.6-6.4,6.7-8.6c0.4-0.3,0.5-1,0.7-1.5l0,0.1c0.7,0.1,1.4,0.2,1.4-0.9l0,0c0.4-0.2,0.8-0.3,1.1-0.5c0.7-0.4,1.4-0.9,2-1.3
	c3.2-1.1,6.5-2.2,9.8-3.3c-0.1,0.4-0.2,1-0.3,1.5c-1.2,3.4-2.4,6.7-3.6,10.1c-0.3,0.9-0.6,1.9-0.8,2.9c-2.2,0.9-2.9,2.9-3.5,4.9
	c-0.3,0.9-1.2,2-0.1,3.5c1.4-3,1.7-6.2,3.9-8.4c0.6,0.3,1.2,0.6,2,1c-0.2,0.4-0.4,0.8-0.7,1.2c-2,2-3.7,4.2-4.1,7.2
	c-0.2,0.5-0.4,1.1-0.6,1.6c-0.3-0.1-0.6-0.2-1.3-0.4c0.4,2.3,0.6,4.3,1.1,6.1c0.7,2.5,1.7,4.9,2.6,7.3c1,2.5,2.3,4.7,5,5.7
	c2.4,0.9,4.9,1.8,7.3,2.5c1.3,0.4,2.6,0.4,4,0.5c0.7,0,1.3-0.3,2-0.5c-5.6-0.4-10.8-1.4-15.4-5c0.3-0.4,0.5-0.7,0.7-1.1
	c-0.5-0.2-0.9-0.5-1.3-0.7c3.6-2,7.2-3.8,11.3-4.5c2-0.4,4.1-0.2,6.2-0.4c5.3-0.4,9.9,1.6,14.3,4.2c0.8,0.5,1.6,1.2,2.3,1.8
	c-2.2-0.8-4.3-1.6-6.5-2.4c0.2,0.6,0.6,0.8,1,1c3,1.4,6.1,2.8,9.1,4.2c0.8,0.4,1.5,0.8,2.3,1.1c0.7,0.2,1.3,0.5,2.1,0.7
	c0.2,1.7,1.8,2,2.9,2.9c0.2,0.3,0.3,0.5,0.5,0.8c0.3,0.2,0.8,0.2,1,0.5c0.8,1,1.4,2.2,2.1,3.2c0.1,0.4,0,0.8,0.2,1.1
	c1.1,1.8,2.2,3.5,3.3,5.2c0.3,0.4,0.5,0.8,0.8,1.2c0.2-0.2,0.3-0.3,0.4-0.4c0.2,0.5,0.5,0.9,0.7,1.4c-0.1,0.3-0.4,0.7-0.3,0.9
	c1.4,3.2,2.9,6.3,4.4,9.5c0.1,0.2,0.6,0.2,0.9,0.4l0,0c0.1,0.3,0.3,0.6,0.4,0.9l0,0c0.2,0.3,0.3,0.6,0.5,0.9c0,0,0,0,0,0
	c0.2,0.2,0.3,0.3,0.5,0.5l0,0c-0.3,0.9,0.1,1.4,0.9,1.8l0,0c0.2,0.3,0.3,0.6,0.5,0.9l0,0c0.1,0.4,0.3,0.7,0.4,1.1
	c0.3,0.6,0.6,1.2,0.9,1.7c0,0.4-0.1,0.9,0.1,1.3c1.8,4.8,3.7,9.6,5.6,14.5c0.3,0.7,0.1,1.1-0.7,1.3c-0.7-1.4-1.5-2.8-2.2-4.2
	c-0.5-0.9-0.9-1.8-1.4-2.6c-0.7-1-1.7-2-2.2-3.2c-1.1-2.3-2.4-4.3-4.5-5.7c-1-1.8-2.7-2.6-4.4-3.3c-1.4,1-1.5,2.3-1.4,3.7
	c-0.2,2.9-1.2,5.5-3.3,7.5c-0.3,0.3-0.9,0.3-1.3,0.5c0.5-1.3,1.1-2.5,1.6-3.8c-0.2-0.1-0.4-0.2-0.6-0.3c-2.2,3.4-4.3,7-7.5,9.7
	c-0.1,0.1-0.1,0.2-0.2,0.3c-0.4,0.1-0.9,0.1-1.3,0.3c-5.4,2.7-10.9,4.8-16.7,6.6c-0.6,0.2-1.4,0.3-1.3,1.3c-0.8,0-1.6-0.1-2.4,0.1
	c-0.3,0-0.5,0.5-0.8,0.8c0,0,0,0,0,0c-0.4,0-0.8,0-1.2,0.1c-0.8-0.6-1.7-0.9-2.7-0.5c-0.4,0.2-1,0-1.4-0.3c-1.1-0.7-2.3-0.7-3.6-0.6
	c-1.2-0.5-2.3-1-3.5-1.5c-2.3-1.1-4.5-2.3-6.8-3.4c-1.1-0.8-2.1-1.6-3.2-2.4c-0.3-0.2-0.6-0.5-0.9-0.7l0,0c-0.3-0.2-0.6-0.3-0.9-0.5
	l0,0c-0.3-1.8-1.9-2.3-3.2-3.2l0,0c0.3-1-0.6-0.9-1.1-1.1c-0.1-0.3-0.2-0.6-0.3-0.9c-0.3-0.2-0.5-0.4-0.8-0.7
	c-0.8-1.4-1.6-2.8-2.4-4.3c-1.6-2.7-2.8-5.6-3.4-8.6c-0.6-3.1-1.2-6.2-0.7-9.4c0.3-2,0.4-4.1,0.6-6.1c0.4-1.5,0.9-3,1.3-4.5
	c0.7-2.4,1.4-4.7,2.2-7.1c0.6,0.1,1,0.2,1.8,0.3c-0.9-1.4-1.5-2.4-2.1-3.5c-0.1-0.3-0.1-0.6-0.2-0.8c-1.2-3.1-2.3-6.3-3.6-9.4
	c-0.1-0.2-0.5-0.2-0.7-0.4c-0.4-1-0.8-2-1.2-3c0.3,0.1,0.7,0.2,1,0.3c-0.3-1.3-0.5-2.7-0.8-4C85.1,55.3,84.9,53.5,84.7,51.7z"/>
<path class="st1" d="M116.4,35.2c-0.9,1.1-1.9,2.3-2.8,3.5c-1.1,1.4-2.1,2.9-3.1,4.3c-1.8,0.8-3.2,2.3-5.3,2.3
	c0.2-0.4,0.5-0.8,0.7-1.2c-0.7-0.4-1.4-0.7-2-1c-0.1,0-0.2,0-0.3,0c0.3-1,0.5-1.9,0.8-2.9c1.2-3.4,2.4-6.7,3.6-10.1
	c0.8,1.2,1.9,1.1,3,0.5c3-0.4,3.3,2.1,4.1,4c0.4-0.5,0.7-0.9,1.3-1.6c0,0.8,0,1.1,0,1.5C116.4,34.7,116.4,35,116.4,35.2z"/>
<path class="st2" d="M118.2,171.2c0-2.1,0-4.1,0-6.2c0.1-0.6,0.3-1.2,0.4-1.8c0-4,0-8,0-12.1c0-0.5-0.3-0.9-0.4-1.4
	c0-1.8,0-3.6,0-5.4c0.2-0.4,0.4-0.8,0.5-1.2l0.1,0l0.1,0c0.1,1.2,0.1,2.5,0.3,3.7c0,0.2,0.4,0.4,0.6,0.6c0.1,0.9,0.4,1.7,0.4,2.6
	c0,1.2-0.2,2.5-0.4,3.7c0,3.9,0,7.8,0,11.7c0,0.6,0.3,1.2,0.4,1.8c0,1.1,0,2.1,0,3.2c-1.1,0-0.9,0.7-0.9,1.4
	C118.6,172.7,118.7,171.2,118.2,171.2z"/>
<path class="st3" d="M145.5,124.7c-0.3,0.3-0.5,0.6-0.8,0.8c-0.7,0.4-1.4,0.8-1.4,1.8c-1,0.5-2,0.9-3,1.4c-1.9,1.1-3.8,1.7-5.9,2.3
	c-1.3,0.4-2.8,0.5-4.1,1.1c-1.1,0.5-2.7,0.1-4,0.1c0-0.9,0.7-1.1,1.3-1.3c5.7-1.7,11.3-3.9,16.7-6.6c0.4-0.2,0.8-0.2,1.3-0.3l0,0
	C145.5,124.3,145.5,124.5,145.5,124.7z"/>
<path class="st4" d="M100.4,54.1c0.4,2.2,0.7,4.4,1.1,6.6c0.7,2,1.3,4,2.1,6c0.3,0.7,1,1.2,1.5,1.8c0.4,0.2,0.9,0.5,1.3,0.7
	c-0.3,0.4-0.4,0.7-0.7,1.1c4.5,3.6,9.8,4.6,15.4,5c-0.7,0.2-1.3,0.5-2,0.5c-1.3,0-2.7-0.1-4-0.5c-2.5-0.7-4.9-1.6-7.3-2.5
	c-2.7-1-4-3.2-5-5.7c-1-2.4-1.9-4.8-2.6-7.3c-0.5-1.9-0.7-3.9-1.1-6.1C99.8,53.9,100.1,54,100.4,54.1z"/>
<path class="st3" d="M173.8,119.7c0.6,2.5,1.2,5.1,1.8,7.6c-0.9,0-1.8,0-2.7,0c0-0.6,0-1.1,0.1-1.7c0.8-0.1,1-0.5,0.7-1.3
	c-1.9-4.8-3.7-9.6-5.6-14.5c-0.2-0.4-0.1-0.9-0.1-1.3c0.2,0,0.4,0,0.6,0c0.6,0.6,1.1,1.2,1.7,1.8c0.2,0.8,0.4,1.5,0.8,2.2
	c0.6,1.3,1.4,2.4,1.9,3.7C173.4,117.3,173.5,118.5,173.8,119.7z"/>
<path class="st5" d="M118.7,143.1c-0.2,0.4-0.4,0.8-0.5,1.2l-0.2,0l-0.2,0c-0.2-2.4-0.3-4.8-0.5-7.1c0.4-1.3-0.1-2.2-1.1-3
	c-0.8-0.7-1.5-1.5-2.2-2.3c1.2-0.1,2.5-0.1,3.6,0.6c0.4,0.2,1.1,0.5,1.4,0.3c1.1-0.5,1.9-0.1,2.7,0.5c-0.1,0.3-0.2,0.7-0.4,0.9
	c-1.9,0.9-2,1-1.6,3.3c0.1,2.4,0.2,4.7,0.2,7.1c0,1,0,2-0.1,3c-0.2-0.2-0.6-0.4-0.6-0.6c-0.1-1.2-0.2-2.5-0.3-3.7c0-2.5,0-4.9,0-7.7
	c-0.9,1.7-0.8,3.2-0.7,4.6C118.4,141,118.6,142,118.7,143.1z"/>
<path class="st3" d="M131.2,17.9c-0.3,0.3-0.6,0.6-0.9,0.9c-0.3,0.2-0.6,0.3-1,0.5c0-0.7-0.1-1.5,0.1-2.2c0.8-3.3,0.4-6.5-0.5-9.6
	c0.3,0.1,0.6,0.1,0.9,0.2c0,0,0,0,0,0c0.2,0.2,0.3,0.3,0.5,0.5c0,0,0,0,0,0c0.1,0.3,0.1,0.5,0.2,0.8c0.1-0.1,0.3-0.2,0.4-0.3
	c0.4,0.3,0.8,0.6,1.2,0.9c0.1,1.6,0.3,3.1,0.4,4.7C132.6,15.6,132.1,16.8,131.2,17.9z"/>
<path class="st6" d="M129.4,19.3c0.3-0.2,0.6-0.3,1-0.5c-0.3,0.7-0.5,1.3-0.9,1.9c-0.9,1.9-1.9,3.8-2.8,5.7c-1.4,3.9-4.2,6.4-8,7.9
	c-0.3,0.1-0.5,0.5-0.8,0.8c-0.1,0.1-0.2,0.2-0.3,0.3c-0.3-0.7-0.7-0.3-1,0c-0.1-0.1-0.1-0.1-0.2-0.2c0-0.3,0-0.5,0.1-0.8
	c1.1-0.5,2.3-1,3.3-1.7c2.4-1.6,4.5-3.5,5.8-6.3C126.7,24.1,128.1,21.7,129.4,19.3z"/>
<path class="st7" d="M118.2,171.2c0.5,0.1,0.5,1.5,1.4,0.6c0.3-0.3,0.6-0.7,0.9-1c0.1,0,0.2,0,0.3,0c0.4,0.7,0.7,1.4,1.1,2.1
	c-0.1,0-0.3,0-0.4,0.1c-0.7,0.6-1.4,1.2-1.9,1.6c-0.9-0.1-1.7-0.2-2.4-0.3c-0.3-0.4-0.6-0.8-1.1-1.3c0.4-0.5,0.8-1.2,1.3-1.8
	C117.6,171.2,117.9,171.2,118.2,171.2z"/>
<path class="st8" d="M140.6,70.2c1.1,0.6,2.2,1.1,3.3,1.7c0.6,0.3,1.4,0.6,1.2,1.6c-0.8-0.4-1.5-0.8-2.3-1.1c-3-1.4-6.1-2.8-9.1-4.2
	c-0.4-0.2-0.8-0.4-1-1c2.2,0.8,4.3,1.6,6.5,2.4C139.7,69.8,140.1,70,140.6,70.2z"/>
<path class="st8" d="M159,90.1c0.7,1.2,1.3,2.4,2,3.6c0.9,1.8,1.7,3.5,2.5,5.3c0.3,0.6,0.3,1.2,0.5,1.8c-0.3-0.1-0.8-0.2-0.9-0.4
	c-1.5-3.1-3-6.3-4.4-9.5C158.5,90.8,158.8,90.4,159,90.1z"/>
<path class="st9" d="M120,189.6c0.1,0.4,0.5,1,0.3,1.3c-0.6,1.3-0.2,2.4,0.1,3.6c-0.6,0-0.9,0.3-0.9,0.9c0,0.8,0,1.7,0,2.9
	c-1.6-1.3-0.5-2.4-0.5-3.4c-0.1-1.4-0.3-2.7-0.4-4.1C119.7,191.1,120.1,190.6,120,189.6z"/>
<path class="st10" d="M157.1,86.1c0.4,0.9,0.8,1.7,1.2,2.6c-0.1,0.1-0.2,0.2-0.4,0.4c-0.3-0.4-0.5-0.8-0.8-1.2
	c-1.1-1.7-2.2-3.5-3.3-5.2c-0.2-0.3-0.1-0.7-0.2-1.1c0.7,0.8,1.5,1.6,2.2,2.4C156.3,84.7,156.6,85.4,157.1,86.1z"/>
<path class="st11" d="M119.7,229.5c-0.1-0.3-0.3-0.6-0.4-0.9c0.1-0.7,0.2-1.4,0.3-2.1c0.1-0.5,0.3-1,0.5-1.6
	c0.2,0.4,0.4,0.8,0.5,1.2c0.2,0.4,0.3,0.7,0.4,1.1c0,0.5,0,0.9,0,1.4c0.1,1.3,0.2,2.7,0.3,4c-0.1,0-0.3,0-0.4,0
	c-0.2-0.7-0.4-1.4-0.5-2.1C120.3,230.1,120.4,229.5,119.7,229.5z"/>
<path class="st12" d="M120.4,167.2c-0.1-0.6-0.4-1.2-0.4-1.8c0-3.9,0-7.8,0-11.7c0.1,0,0.3,0,0.4,0.1c0.1,2.5,0.2,5,0.3,7.5
	C120.6,163.3,120.5,165.2,120.4,167.2z"/>
<path class="st9" d="M118.7,190.9c-0.9-1.1-0.2-2.4-0.5-3.6c0-1.2,0-2.3,0-3.5c0-0.6,0.3-0.9,0.9-0.9c0,2,0.1,3.9,0,5.9
	C119.1,189.5,118.8,190.2,118.7,190.9z"/>
<path class="st4" d="M120.9,232.7c0.1,0,0.3,0,0.4,0c0.2,1.5,0.4,3.1,0.7,4.6c-0.4,0.6-0.4,1.5-1.5,1.3c0.9-1.4,1.1-2.9,0.5-4.6
	C120.8,233.6,120.9,233.1,120.9,232.7z"/>
<path class="st4" d="M118.7,241.7c-0.3,1.1-0.5,2.2-0.8,3.3c-0.2,0.1-0.4,0.1-0.6,0.2c-0.7-0.9-1.5-1.8-2.2-2.6
	c0.8,0.1,1.6,0.2,2.5,0.4c0.2-0.5,0.3-0.9,0.5-1.3c0.2,0,0.4,0,0.6-0.1C118.6,241.6,118.7,241.7,118.7,241.7z"/>
<path class="st9" d="M119.5,203.1c0.1-1.4,0.3-2.9,0.5-4.7c1.4,1.7,0.6,3.3,0.9,4.7C120.4,203.1,120,203.1,119.5,203.1z"/>
<path class="st13" d="M119.5,203.1c0.4,0,0.9,0,1.3,0c0,0.1,0,0.3,0,0.4c-0.8,0.9,0.2,1.8,0,2.7c-0.3,0-0.6,0-0.8,0
	c-0.1-0.5,0.2-1.3-0.8-1.4c0-0.2-0.1-0.3-0.1-0.5C119.2,203.9,119.4,203.5,119.5,203.1z"/>
<path class="st14" d="M119.2,204.9c1,0,0.7,0.8,0.8,1.4c0,0.7,0,1.5-0.1,2.2c-0.3-0.2-0.8-0.5-0.8-0.7
	C119.1,206.7,119.2,205.8,119.2,204.9z"/>
<path class="st9" d="M120.4,182.4c-0.2,1.1,0.4,2.4-0.9,3.3c0-1.1,0-2.2,0-3.3C119.8,182.4,120.1,182.4,120.4,182.4z"/>
<path class="st9" d="M120.4,176.2c0.2,0.6,0.3,1.2,0.5,1.9c-0.2,1-0.3,2-0.5,3c0,0,0,0,0,0c-0.1-1.2-0.3-2.3-0.4-3.5
	C120,177.2,120.3,176.7,120.4,176.2z"/>
<path class="st13" d="M120.4,182.4c-0.3,0-0.6,0-0.9,0c-0.1,0-0.3,0-0.4,0c0-0.3,0-0.6,0-1c0-0.1,0-0.3,0.1-0.4c0.4,0,0.8,0,1.3,0
	c0,0,0,0,0,0C120.4,181.6,120.4,182,120.4,182.4z"/>
<path class="st14" d="M120.9,206.2c0.2-0.9-0.8-1.8,0-2.7c0.1,0.3,0.3,0.6,0.4,0.9c0,0.6,0,1.2,0,1.8
	C121.2,206.2,121,206.2,120.9,206.2z"/>
<path class="st15" d="M120.5,170.8c-0.3,0.3-0.6,0.7-0.9,1c0-0.7-0.2-1.4,0.9-1.4C120.4,170.5,120.5,170.6,120.5,170.8z"/>
<path class="st14" d="M121.3,208c0.6,0.4,0.6,0.9,0,1.3C121.2,208.8,120.5,208.4,121.3,208z"/>
<path class="st8" d="M165.8,103.1c0.1,0.6,0.3,1.2,0.4,1.8c-0.7-0.4-1.1-0.9-0.9-1.8C165.4,103.1,165.6,103.1,165.8,103.1z"/>
<path class="st13" d="M119.6,195.4c-0.1-0.6,0.2-0.9,0.9-0.9c0,0.1,0,0.3,0,0.4C120.1,195.1,119.9,195.3,119.6,195.4z"/>
<path class="st14" d="M120.4,220.6c0,0.5,0,1,0,1.5c-0.1,0-0.2,0-0.2,0c-0.1-0.4-0.1-0.7-0.2-1.1
	C120.1,220.9,120.3,220.7,120.4,220.6z"/>
<path class="st13" d="M150,77.1c0.2-0.2,0.3-0.3,0.5-0.5c0,0.4,0,0.8,0,1.3C150.3,77.7,150.2,77.4,150,77.1z"/>
<path class="st9" d="M119.9,188.3c0,0.3,0,0.6,0,0.9C119.4,188.9,119.4,188.6,119.9,188.3z"/>
<path class="st13" d="M175.6,128.7c-0.1-0.2-0.3-0.4-0.4-0.5c0.1-0.1,0.2-0.2,0.3-0.3c0.2,0.2,0.3,0.3,0.5,0.5
	C175.9,128.4,175.7,128.5,175.6,128.7z"/>
<path class="st13" d="M123.1,133.1c0.3,0.2,0.6,0.3,0.9,0.5c-0.1,0.2-0.3,0.3-0.4,0.5C123.4,133.7,123.2,133.4,123.1,133.1
	L123.1,133.1z"/>
<path class="st8" d="M164.9,102.6c-0.2-0.3-0.3-0.6-0.5-0.9C164.6,102,164.7,102.3,164.9,102.6z"/>
<path class="st8" d="M164.4,101.7c-0.1-0.3-0.3-0.6-0.4-0.9C164.1,101.1,164.3,101.4,164.4,101.7z"/>
<path class="st8" d="M165.3,103.1c-0.2-0.2-0.3-0.3-0.5-0.5C165,102.8,165.1,102.9,165.3,103.1z"/>
<path class="st16" d="M121,227.2c-0.1-0.4-0.3-0.7-0.4-1.1c-0.2-0.4-0.4-0.8-0.5-1.2c0-0.6,0-1.2,0.1-1.8c0-0.1,0.2-0.2,0.2-0.2
	c0.3,0.6,0.8,1.3,0.9,2C121.3,225.7,121.1,226.5,121,227.2z"/>
<path class="st6" d="M129.8,7.6c-0.3-0.1-0.6-0.1-0.9-0.2c-1.1-1.1-2.4-1.7-4-1.7c-0.9-1.2-2.1-1-3.2-0.5c-2,0.8-3.9,1.8-5.8,2.8
	c-1.5,0.9-2.7,2.1-2.7,4c-0.2,0.8-0.3,1.6-0.6,2.3c-0.4,1.4-1,2.7-1.3,4.2c-0.3,1.9-0.4,3.8-0.6,5.8c-0.1,0-0.2,0-0.3,0.1
	c-0.2-0.8-0.3-1.6-0.5-2.4c0.1-1,0.1-2.1,0.2-3.1c1-3.1,2-6.3,3-9.4c1.9-2.4,4.6-3.7,7.4-4.8c2.9-1.2,7.2,0.1,9.3,2.5
	C130,7.2,129.9,7.5,129.8,7.6z"/>
<path class="st6" d="M130.9,8.5c-0.1,0.1-0.3,0.2-0.4,0.3c-0.1-0.3-0.1-0.5-0.2-0.8C130.5,8.2,130.7,8.4,130.9,8.5z"/>
<path class="st6" d="M130.3,8.1c-0.2-0.2-0.3-0.3-0.5-0.5C130,7.8,130.1,7.9,130.3,8.1z"/>
<path class="st5" d="M119.2,181.1c-0.1,0.1-0.1,0.2-0.1,0.4c-0.2-1.2-0.3-2.3-0.5-3.5c0.6-1.6-0.5-2.6-1.4-3.6
	c0.8,0.1,1.6,0.2,2.4,0.3c0.5-0.5,1.2-1,1.9-1.6c-0.4,0.8-0.7,1.6-1.1,2.4c-0.4,0-0.8,0.1-1.3,0.1
	C119.2,177.4,119.2,179.3,119.2,181.1z"/>
<path class="st17" d="M118.2,149.7c0.1,0.5,0.4,0.9,0.4,1.4c0,4,0,8,0,12.1c-0.2,0-0.3,0-0.5,0.1c0-0.6-0.1-1.2-0.1-1.8
	c0-2.6,0.1-5.1,0.1-7.7C118.2,152.4,118.2,151,118.2,149.7z"/>
<path class="st18" d="M118.1,163.2c0.2,0,0.3,0,0.5-0.1c-0.1,0.6-0.3,1.2-0.4,1.8C117.5,164.4,117.5,163.8,118.1,163.2z"/>
<path class="st19" d="M118.1,241.7c-0.1,0.4-0.3,0.8-0.5,1.3c-0.9-0.1-1.7-0.3-2.5-0.4c-1.6-1.3-3.5-1.6-5.7-1.4
	c-0.9-1.6-2.3-2.7-4.2-3.2c0.3-0.4,0.6-1.2,0.9-1.2c2,0.1,3-1.9,4.7-2c2.9-0.3,4.8-2.6,7.3-3.6c0.6-0.2,1-1.1,1.5-1.7
	c0.8,0,0.6,0.6,0.7,1.1c0.1,0.7,0.3,1.4,0.5,2.1c0,0.4-0.1,0.9,0.1,1.3c0.7,1.6,0.4,3.1-0.5,4.6c0,0,0,0,0,0
	c-0.5,0.3-0.9,0.5-1.4,0.8C118.3,239.9,117.6,240.5,118.1,241.7z"/>
<path class="st20" d="M124.9,5.7c1.6,0,2.9,0.6,4,1.7c0.9,3.2,1.3,6.4,0.5,9.6c-0.2,0.7-0.1,1.5-0.1,2.2c-1.3,2.4-2.6,4.8-3.8,7.2
	c-1.3,2.7-3.4,4.7-5.8,6.3c-1,0.7-2.2,1.1-3.3,1.7c0-0.4,0-0.7,0-1.5c-0.6,0.7-0.9,1.1-1.3,1.6c-0.8-1.9-1.1-4.4-4.1-4
	c-0.7,0-1.4-0.1-2.2-0.1c0.6-1.7,1.2-3.3,1.7-4.9c0.1-0.1,0.2-0.1,0.1-0.1c0,0,0,0.1-0.1,0.1c-1.8,0.9-3.6,1.9-5.4,2.8
	c0.5-0.7,0.9-1.3,1.4-2c1.1-1.5,2.3-3,3.4-4.5c0.2,0.8,0.3,1.6,0.5,2.4c0.1,0,0.2,0,0.3-0.1c0.2-1.9,0.2-3.9,0.6-5.8
	c0.3-1.4,0.9-2.8,1.3-4.2c0.2-0.8,0.4-1.6,0.6-2.3c0.8-0.7,1.5-1.4,2.3-2.1C118.2,7.7,121.2,5.9,124.9,5.7z M125.7,17.7
	c-0.7,2-1.2,3.6-1.9,5.1c-0.6,1.5-1.6,2.8-3.2,3.6c-2.2,1-3.1,2.3-3.3,5c0.5-0.7,0.8-1.5,1.3-2.1c0.4-0.6,1-1.4,1.6-1.7
	c3.9-1.7,4.9-5.1,5.7-8.7C126.1,18.7,125.9,18.4,125.7,17.7z"/>
<path class="st21" d="M93.9,34.4c-0.2,0.5-0.3,1.2-0.7,1.5c-3.1,2.2-4.9,5.4-6.7,8.6c-0.3,0.6-0.6,1.3-1,1.9c-0.2,0.3-0.7,0.5-1,0.7
	c-1.3-1,0.9-1.6,0.3-2.5c0.9-0.4,0.1-1,0.2-1.5c1.9-2,3.1-4.6,5.2-6.4c0.2-0.1,0.2-0.5,0.2-0.8c0.5-0.3,1-0.7,1.4-1
	C92.7,35.7,93.2,34.3,93.9,34.4z"/>
<path class="st4" d="M110.6,25.5c-0.6,1.6-1.1,3.2-1.7,4.9c0.8,0,1.5,0.1,2.2,0.1c-1.1,0.6-2.2,0.7-3-0.5c0.1-0.5,0.2-1.1,0.3-1.5
	c-3.3,1.1-6.6,2.2-9.8,3.3c0-0.3,0-0.6,0-0.8c2.2-0.9,4.5-1.7,6.7-2.6C107,27.5,108.8,26.5,110.6,25.5L110.6,25.5z"/>
<path class="st5" d="M98.5,31c0,0.3,0,0.6,0,0.8c-0.7,0.4-1.4,0.9-2,1.3c-0.4,0.2-0.8,0.3-1.1,0.5l0,0c-0.5,0.3-0.9,0.6-1.4,0.9
	l0-0.1c-0.8-0.1-1.2,1.3-2.1,0.4C93.8,33.1,96,31.9,98.5,31z"/>
<path class="st11" d="M87.7,89.2c-0.2,2-0.2,4.1-0.6,6.1c-0.5,3.2,0.1,6.3,0.7,9.4c0.6,3,1.8,5.9,3.4,8.6c-0.2-0.2-0.6-0.3-0.6-0.6
	c-0.3-1.1-1.3-1.6-2-2.4c-0.8-2.4-1.5-4.8-2.3-7.2c-0.1-0.9-0.2-1.7-0.2-2.6c0.1-0.8,0.2-1.6,0.2-2.4c0-1.4-0.2-2.8,0.1-4.2
	C86.6,92.3,86.5,90.5,87.7,89.2z"/>
<path class="st11" d="M94.7,119c0.5,0.2,1.3,0.2,1.1,1.1c-0.4-0.2-0.9-0.3-1.3-0.5c0-0.2-0.1-0.4-0.1-0.6
	C94.4,119.1,94.6,119.1,94.7,119z"/>
<path class="st11" d="M93.7,117.5c0.3,0.2,0.5,0.4,0.8,0.7C94.2,118,93.9,117.7,93.7,117.5z"/>
<path class="st11" d="M95.7,120.1c1.3,0.8,2.9,1.4,3.2,3.2C97.6,122.5,96.1,121.9,95.7,120.1z"/>
<path class="st11" d="M99.8,123.7c0.3,0.2,0.6,0.5,0.9,0.7C100.1,124.4,99.6,124.5,99.8,123.7z"/>
<path class="st11" d="M98.9,123.3c0.3,0.2,0.6,0.3,0.9,0.5C99.5,123.6,99.2,123.4,98.9,123.3z"/>
<path class="st7" d="M87.7,89.2c-1.2,1.3-1.1,3.1-1.3,4.7c-0.2,1.4,0,2.8-0.1,4.2c0,0.8-0.1,1.6-0.2,2.4c-1.1-2.2-0.5-4.5-0.7-6.8
	c0.5-2.5,1-5,1.4-7.5c1.1-3.1,0.8-6.3,0.8-9.5c0.1-2.4-0.1-4.8-0.8-7.2c0-0.9,0-1.8,0-2.7c1.2,2.6,2.3,5.1,3.5,7.7
	c0.4,3.6-1.6,6.8-2,10.3c0.2,0,0.5,0,0.7,0C88.6,86.2,88.2,87.7,87.7,89.2z"/>
<path class="st22" d="M84.7,51.7c0.2,1.8,0.5,3.6,0.7,5.3c0.2,1.4,0.5,2.7,0.8,4c-0.3-0.1-0.7-0.2-1-0.3c-0.1-0.3-0.2-0.6-0.4-0.9
	c-0.1-0.7-0.3-1.3-0.4-2C84,55.8,83.7,53.7,84.7,51.7z"/>
<path class="st8" d="M90.4,74.4c-1.2-2.6-2.3-5.1-3.5-7.7c-0.2-1-0.3-2-0.5-3c0.2,0.1,0.7,0.2,0.7,0.4c1.2,3.1,2.4,6.3,3.6,9.4
	c0.1,0.3,0.1,0.6,0.2,0.8C90.7,74.4,90.5,74.4,90.4,74.4z"/>
<path class="st16" d="M162.6,109.9c-1,0.1-1.9,0.3-2.9,0.4c-0.9,0.1-1.9,0-2.8,0c-0.2-1.4,0-2.7,1.4-3.7
	C159.9,107.3,161.5,108.1,162.6,109.9z"/>
<path class="st6" d="M151.4,119.3c-0.1,0.1-0.2,0.2-0.2,0.3c-1.3,1.3-2.5,2.6-3.8,3.8c-0.4,0.3-0.9,0.5-1.4,0.7
	c-0.1-0.1-0.2-0.2-0.2-0.3c3.2-2.7,5.3-6.2,7.5-9.7c0.2,0.1,0.4,0.2,0.6,0.3c-0.5,1.3-1.1,2.5-1.6,3.8l0,0
	C152,118.7,151.7,119,151.4,119.3z"/>
<path class="st4" d="M90.4,74.4c0.2,0,0.3,0,0.5,0c0.6,1.1,1.3,2.1,2.1,3.5c-0.8-0.1-1.2-0.2-1.8-0.3c-0.7,2.3-1.4,4.7-2.2,7.1
	c-0.2,0-0.4,0-0.7,0C88.8,81.2,90.8,78,90.4,74.4z"/>
<path class="st4" d="M103.5,43c0.1,0,0.2-0.1,0.3,0c-2.2,2.3-2.5,5.4-3.9,8.4c-1.1-1.5-0.2-2.6,0.1-3.5
	C100.7,46,101.3,43.9,103.5,43z"/>
<path class="st10" d="M168.5,108.5c-0.2,0-0.4,0-0.6,0c-0.3-0.6-0.6-1.2-0.9-1.7c0-0.2,0.1-0.5,0.1-0.7
	C167.6,106.9,168.1,107.7,168.5,108.5z"/>
<path class="st21" d="M94,34.5c0.5-0.3,0.9-0.6,1.4-0.9C95.4,34.6,94.7,34.6,94,34.5z"/>
<path class="st21" d="M95.3,33.6c0.4-0.2,0.8-0.3,1.1-0.5C96.1,33.3,95.7,33.4,95.3,33.6z"/>
<path class="st8" d="M166.2,104.9c0.2,0.3,0.3,0.6,0.5,0.9C166.5,105.5,166.3,105.2,166.2,104.9z"/>
<path class="st8" d="M167.1,106.1c0,0.2-0.1,0.5-0.1,0.7c-0.1-0.4-0.3-0.7-0.4-1.1C166.8,105.9,167,106,167.1,106.1z"/>
<path class="st3" d="M145.7,123.8c0,0.1,0.1,0.2,0.2,0.3l0,0c-0.2,0-0.3,0-0.5,0l0,0C145.6,124,145.7,123.9,145.7,123.8z"/>
<path class="st23" d="M116.6,35.4c0.3-0.4,0.6-0.7,1,0C117.2,35.4,116.9,35.4,116.6,35.4z"/>
<path class="st4" d="M119.1,239.3c0.5-0.3,0.9-0.5,1.4-0.8c-0.4,0.8-0.9,1.5-1.3,2.3c0,0-0.1,0-0.1,0
	C119.1,240.2,119.1,239.8,119.1,239.3z"/>
<path class="st4" d="M119.1,240.8c-0.1,0.3-0.3,0.6-0.4,0.9c0,0-0.1-0.1-0.1-0.1C118.8,241.3,118.9,241,119.1,240.8
	C119.1,240.7,119.1,240.8,119.1,240.8z"/>
<path class="st13" d="M119.2,181.1c0-1.8,0-3.7,0-5.6c0.4,0,0.8-0.1,1.3-0.1c0,0.3,0,0.5,0,0.8c-0.1,0.5-0.4,1-0.4,1.4
	c0.1,1.2,0.2,2.3,0.4,3.5C120,181.1,119.6,181.1,119.2,181.1z"/>
<path class="st6" d="M145.5,124.2c0.2,0,0.3,0,0.5,0c-0.2,0.2-0.3,0.4-0.5,0.6C145.5,124.5,145.5,124.3,145.5,124.2z"/>
<path class="st24" d="M118.7,143.1c-0.1-1-0.3-2-0.4-3.1c-0.1-1.5-0.2-2.9,0.7-4.6c0,2.8,0,5.2,0,7.7l-0.1,0L118.7,143.1z"/>
<path class="st11" d="M119.1,240.7c-0.1,0.3-0.3,0.6-0.4,0.9c-0.2,0-0.4,0-0.6,0.1c-0.5-1.1,0.3-1.7,1-2.4
	C119.1,239.8,119.1,240.2,119.1,240.7z"/>
<path class="st25" d="M124.9,5.7c-3.7,0.1-6.7,1.9-9.4,4.3c-0.8,0.7-1.5,1.4-2.3,2.1c0-1.9,1.2-3.2,2.7-4c1.8-1.1,3.8-2,5.8-2.8
	C122.8,4.8,124,4.6,124.9,5.7z"/>
<path class="st4" d="M125.7,17.7c0.2,0.7,0.4,1,0.3,1.2c-0.8,3.6-1.8,7-5.7,8.7c-0.7,0.3-1.2,1.1-1.6,1.7c-0.5,0.7-0.8,1.5-1.3,2.1
	c0.2-2.7,1.1-3.9,3.3-5c1.6-0.8,2.5-2.1,3.2-3.6C124.5,21.3,125,19.7,125.7,17.7z"/>
<path class="st4" d="M110.6,25.6c0.1-0.1,0.1-0.2,0.1-0.1C110.7,25.4,110.6,25.5,110.6,25.6L110.6,25.6z"/>
<path class="st0" d="M151.4,119.3c0.3-0.3,0.6-0.7,0.8-1C152.5,119.1,152,119.2,151.4,119.3z"/>
</svg>
